PathFileType	4	(X/Y/Z)	./resultDataOpenSim/trcMotMarkerGrf/sub10/qtm-13-08.trc
DataRate	CameraRate	NumFrames	NumMarkers	Units	OrigDataRate	OrigDataStartFrame	OrigNumFrames
250.000000	250.000000	12	24	m	250.000000	199	529
Frame#	Time	L.Toe.Tip			R.Toe.Tip			L.Ankle.Lat			R.Ankle.Lat			L.Ankle.Med			R.Ankle.Med			L.Heel			R.Heel			L.Knee.Lat			R.Knee.Lat			L.Knee.Med			R.Knee.Med			L.Thigh.Upper			R.Thigh.Upper			L.ASIS			R.ASIS			V.Sacral			L.Acromium			R.Acromium			C7			L.Elbow			R.Elbow			L.Wrist.Lat			R.Wrist.Lat
		X1	Y1	Z1	X2	Y2	Z2	X3	Y3	Z3	X4	Y4	Z4	X5	Y5	Z5	X6	Y6	Z6	X7	Y7	Z7	X8	Y8	Z8	X9	Y9	Z9	X10	Y10	Z10	X11	Y11	Z11	X12	Y12	Z12	X13	Y13	Z13	X14	Y14	Z14	X15	Y15	Z15	X16	Y16	Z16	X17	Y17	Z17	X18	Y18	Z18	X19	Y19	Z19	X20	Y20	Z20	X21	Y21	Z21	X22	Y22	Z22	X23	Y23	Z23	X24	Y24	Z24

199	0.792	0.059045588	-0.0054474674	-0.073312982	-0.65625011	0.037765423	-0.0046544215	-0.074890336	0.018769386	-0.10211086	-0.73464067	0.15429677	0.023051081	-0.070874349	0.041450716	-0.018999972	-0.68368345	0.14704915	-0.047903143	-0.14020885	-0.012483386	-0.059907382	-0.7722791	0.17022599	-0.03607532	-0.063500631	0.40564336	-0.13766993	-0.4191278	0.38318495	0.086095055	-0.061817543	0.38456341	-0.015354155	-0.36904912	0.3656958	-0.027931835	-0.17819322	0.76541299	-0.2067301	-0.34867961	0.77498285	0.14342078	-0.16633071	0.87378619	-0.12178347	-0.2462467	0.8602517	0.11052648	-0.39773977	0.87689229	-0.084411434	-0.28445129	1.3307451	-0.1905011	-0.32804294	1.3362795	0.13202518	-0.3884908	1.3574934	-0.045060842	-0.43930355	1.033665	-0.23947921	-0.31599986	0.97753867	0.20118622	-0.41981981	0.80104509	-0.29750589	-0.07484531	0.9132168	0.17100356
200	0.796	0.059754253	-0.0059057335	-0.073360112	-0.65473805	0.037713026	-0.0046375535	-0.074435067	0.019379875	-0.10195223	-0.72655726	0.15866257	0.024716095	-0.070299229	0.041848479	-0.018871836	-0.67557763	0.14986468	-0.045531714	-0.13984329	-0.011774669	-0.059745421	-0.76295517	0.17678985	-0.034444547	-0.055292903	0.40658068	-0.13733307	-0.40831916	0.3814556	0.089030265	-0.0545828	0.38597572	-0.014553555	-0.35710387	0.36248803	-0.024751047	-0.17149314	0.76578633	-0.20775113	-0.34012999	0.7732658	0.14342826	-0.16059086	0.87319179	-0.12263573	-0.23805001	0.85914888	0.10902975	-0.39118443	0.87627818	-0.084201299	-0.27799551	1.3297995	-0.19104188	-0.32148013	1.335715	0.13139611	-0.38156861	1.3567004	-0.045698992	-0.43192867	1.0324636	-0.24005516	-0.31202715	0.97676527	0.2003212	-0.41268488	0.80020537	-0.29937094	-0.071223108	0.91093386	0.17148928
201	0.8	0.060531736	-0.0063457033	-0.073487897	-0.65261371	0.038088084	-0.004506211	-0.07377955	0.019941341	-0.10168335	-0.71830237	0.16292761	0.026512893	-0.069218817	0.04220101	-0.018520249	-0.66720081	0.15275192	-0.043248428	-0.13940552	-0.011023655	-0.059472607	-0.75340206	0.18314276	-0.032642686	-0.047162319	0.40737819	-0.13698126	-0.39732485	0.37961546	0.092094052	-0.047226944	0.38734011	-0.013839528	-0.3447238	0.3591294	-0.021488301	-0.16498646	0.7661277	-0.20875936	-0.33159781	0.77145708	0.14345276	-0.15497896	0.87268843	-0.12345536	-0.23018121	0.85803472	0.10756557	-0.38400681	0.87561304	-0.08400873	-0.2715213	1.32883	-0.19150966	-0.314866	1.3351265	0.1307797	-0.37452787	1.355909	-0.046242244	-0.42453544	1.0311497	-0.24027249	-0.30824871	0.97596949	0.19945045	-0.40522731	0.7994203	-0.30150605	-0.06771271	0.90852502	0.17211253
202	0.804	0.061237859	-0.0067266514	-0.073591943	-0.64977284	0.039064077	-0.0042024792	-0.07303845	0.020356404	-0.10136933	-0.7098812	0.16716878	0.028427279	-0.068085268	0.042455996	-0.018157074	-0.65863825	0.15577511	-0.041068506	-0.13897375	-0.01029393	-0.059158971	-0.74378459	0.18929118	-0.030608695	-0.039182604	0.40797854	-0.13665906	-0.38617632	0.37766557	0.095273672	-0.03985892	0.38857174	-0.013303218	-0.33199333	0.35564974	-0.018184684	-0.1586948	0.76637749	-0.2097319	-0.32309838	0.76955871	0.14348369	-0.14946758	0.87224255	-0.12424273	-0.22254457	0.85689078	0.1060978	-0.37576222	0.8747999	-0.083826133	-0.26503244	1.3278329	-0.19191331	-0.30823425	1.3345026	0.13017772	-0.36741088	1.355085	-0.046702453	-0.41713022	1.0296991	-0.24003024	-0.30465251	0.9751434	0.19862827	-0.39755347	0.79862897	-0.30377005	-0.064289036	0.90600179	0.17291418
203	0.808	0.061798807	-0.0070311392	-0.073641251	-0.64628161	0.040632109	-0.0036680417	-0.072347398	0.020601738	-0.10108921	-0.70113923	0.17148164	0.030480845	-0.067249431	0.042606026	-0.017952425	-0.64995279	0.1589739	-0.038942997	-0.13860453	-0.0096110129	-0.058885474	-0.73417239	0.19534011	-0.028234688	-0.031405833	0.4083327	-0.13640076	-0.37489123	0.37562449	0.098555095	-0.032569121	0.38957903	-0.013016159	-0.31901413	0.35207397	-0.014859273	-0.15263428	0.76649865	-0.2106512	-0.31464459	0.76758008	0.14351029	-0.14399421	0.87179536	-0.12501072	-0.21503854	0.85570746	0.10459659	-0.36661934	0.87374401	-0.083582911	-0.25853116	1.3267953	-0.19226386	-0.30162227	1.3338065	0.12959604	-0.36026481	1.3541982	-0.047091599	-0.40975536	1.0281086	-0.2393315	-0.30114	0.97431474	0.19788953	-0.38986198	0.79774727	-0.30590788	-0.060932692	0.9033626	0.17391136
204	0.812	0.062230941	-0.0072692407	-0.073683465	-0.64226314	0.042657438	-0.0028600606	-0.071774709	0.020732851	-0.1008862	-0.69189574	0.17590807	0.032691774	-0.066673428	0.042691783	-0.017881056	-0.64115865	0.16234657	-0.036797461	-0.13830122	-0.0089688741	-0.058688227	-0.72450952	0.20141262	-0.02550694	-0.023881372	0.40840388	-0.13623042	-0.36347669	0.37352001	0.10189905	-0.025382846	0.39026548	-0.012981909	-0.30587152	0.34843013	-0.011535489	-0.14681716	0.76647314	-0.21151783	-0.3062776	0.76554122	0.1435416	-0.13852567	0.87132093	-0.12575375	-0.20763763	0.85448893	0.10307566	-0.35735235	0.87239499	-0.083120335	-0.25201893	1.3256993	-0.19257006	-0.29505645	1.3330023	0.12904833	-0.35314308	1.3532309	-0.04741807	-0.40252504	1.0264261	-0.23842373	-0.29758762	0.97351064	0.19720212	-0.382255	0.79674639	-0.30781228	-0.057629497	0.90059945	0.17508642
205	0.816	0.062598154	-0.0074637033	-0.073771902	-0.63778542	0.045014919	-0.001766011	-0.071288739	0.020834502	-0.10076462	-0.68209775	0.18044005	0.035040058	-0.066123961	0.042756191	-0.017826328	-0.63218516	0.16584987	-0.034608157	-0.13802507	-0.0083532921	-0.058551915	-0.71464194	0.20757992	-0.022593835	-0.016655685	0.40818694	-0.13616477	-0.3519366	0.3713828	0.1052587	-0.01829161	0.39056933	-0.013150378	-0.29261258	0.34475182	-0.0082501009	-0.14124854	0.76629888	-0.21234354	-0.29808226	0.76346572	0.14362111	-0.13307561	0.87082208	-0.12646093	-0.20040601	0.85324426	0.1015854	-0.34874299	0.87079337	-0.082265094	-0.24549802	1.3245342	-0.19283844	-0.28852996	1.3320762	0.12854219	-0.34610866	1.352185	-0.04768846	-0.39560203	1.0247538	-0.23779601	-0.29390399	0.97272488	0.19648733	-0.37468	0.79565902	-0.30957939	-0.054370406	0.89770899	0.17641767
206	0.82	0.062958809	-0.0076336444	-0.073913429	-0.63281994	0.047663412	-0.0003804579	-0.070809946	0.020953661	-0.10070055	-0.67187466	0.18505249	0.037466112	-0.065447652	0.04281068	-0.017714276	-0.6229281	0.1694245	-0.032427652	-0.13773486	-0.0077619066	-0.058440776	-0.70437923	0.2138165	-0.019756191	-0.009765891	0.40771048	-0.13621186	-0.34026982	0.36924379	0.10860111	-0.011322635	0.39049296	-0.013485423	-0.27925629	0.34108119	-0.0050580278	-0.13591757	0.76598353	-0.21313741	-0.29015875	0.76136563	0.14381572	-0.12767417	0.87028763	-0.12714505	-0.19345933	0.85196088	0.10019162	-0.34136999	0.86917742	-0.080843382	-0.23896722	1.3233055	-0.19307389	-0.2820058	1.3310324	0.12807029	-0.33921139	1.3510702	-0.047909263	-0.38905328	1.0231822	-0.23786679	-0.29006414	0.97192788	0.19571134	-0.36702263	0.79452273	-0.31136285	-0.051158702	0.89468985	0.17790981
207	0.824	0.063334776	-0.0077864979	-0.07408014	-0.62726272	0.050626819	0.0013276151	-0.070289129	0.021073805	-0.10064509	-0.66142003	0.18971756	0.039884528	-0.064578539	0.04285312	-0.0174961	-0.61335211	0.1730348	-0.030312289	-0.13742182	-0.0072148567	-0.058314551	-0.69357273	0.21998617	-0.017198581	-0.0032409633	0.40701194	-0.13636809	-0.32846562	0.36712701	0.11190352	-0.0045225868	0.39009333	-0.013954487	-0.26580366	0.33747927	-0.0020294471	-0.13079962	0.76553291	-0.21390313	-0.28254027	0.75923153	0.14415643	-0.12234783	0.86968847	-0.12783491	-0.18682809	0.85060746	0.098924594	-0.33571028	0.86798863	-0.07860199	-0.23241909	1.3220243	-0.19328561	-0.2754516	1.3298771	0.12762389	-0.33244427	1.3498767	-0.048100048	-0.38266561	1.0216988	-0.23867358	-0.28612068	0.97109265	0.19495783	-0.35918717	0.79334597	-0.31327573	-0.048002513	0.89153727	0.1795894
208	0.828	0.06371101	-0.0079221416	-0.074241287	-0.62098358	0.05393109	0.0034174327	-0.069737395	0.021144179	-0.10054252	-0.6508396	0.19442512	0.042213624	-0.063503228	0.04287992	-0.017129498	-0.60349699	0.17669776	-0.028281743	-0.13711155	-0.0067465928	-0.058127792	-0.68221817	0.22591539	-0.014995169	0.0028968335	0.40611854	-0.13661857	-0.31650571	0.36504288	0.11513482	0.0020924158	0.38944034	-0.014478429	-0.25225008	0.33403906	0.00080064721	-0.12586953	0.76494073	-0.21464491	-0.27511623	0.75703576	0.14455143	-0.11711138	0.86900292	-0.12854546	-0.18038617	0.84917519	0.097755785	-0.33194948	0.86761751	-0.075334325	-0.22584264	1.320693	-0.19348726	-0.26885796	1.3286105	0.12720416	-0.3257488	1.348574	-0.048292649	-0.37590563	1.0201683	-0.23998275	-0.28215693	0.97020464	0.19436451	-0.35113069	0.79211505	-0.3153668	-0.044900415	0.88824229	0.18147446
209	0.832	0.064053619	-0.0080423088	-0.074376466	-0.61387964	0.057552808	0.0059421549	-0.069206919	0.021124597	-0.1003589	-0.6401005	0.19921425	0.044417143	-0.062327449	0.042869524	-0.016635165	-0.59337825	0.18046788	-0.026345892	-0.13684014	-0.0063860396	-0.057847011	-0.6705054	0.23151986	-0.01308448	0.0086325715	0.40504719	-0.13693826	-0.30437145	0.36299272	0.11824336	0.0085098082	0.3885822	-0.014961058	-0.23862935	0.33087426	0.0034441345	-0.12110655	0.76419205	-0.21536761	-0.26769161	0.75476051	0.14480201	-0.11196545	0.86822352	-0.12927074	-0.17399049	0.84768932	0.096650822	-0.3296793	0.86810766	-0.071105791	-0.21922993	1.319305	-0.19369042	-0.26223271	1.3272276	0.12681706	-0.31908037	1.3471467	-0.048504311	-0.36821816	1.0184199	-0.24157081	-0.27822904	0.96924816	0.19397993	-0.34286088	0.79081739	-0.3176256	-0.041842517	0.88479672	0.18356036
210	0.836	0.064329792	-0.0081531066	-0.074475346	-0.60592194	0.061423162	0.0089109761	-0.068755619	0.021008008	-0.1000982	-0.62910805	0.20414972	0.04650341	-0.061267546	0.042777614	-0.016111744	-0.58292941	0.18438427	-0.024505583	-0.13663359	-0.0061426453	-0.057476193	-0.65868898	0.23683189	-0.011343097	0.013958966	0.40380553	-0.13728771	-0.29205189	0.36098172	0.12116427	0.014684638	0.3875467	-0.015348541	-0.22503208	0.3280811	0.0059013759	-0.11648837	0.76327795	-0.21607133	-0.26018867	0.75243193	0.14478653	-0.10690192	0.86734902	-0.13000591	-0.16761897	0.84617539	0.095615483	-0.32796172	0.86906968	-0.066359149	-0.2125805	1.3178572	-0.19390189	-0.25559251	1.3257289	0.12646805	-0.31244099	1.3456121	-0.048728147	-0.35960052	1.0163969	-0.24324964	-0.27435969	0.96819997	0.19373896	-0.33440482	0.78945417	-0.3200123	-0.038821429	0.88120349	0.18583147
